HIERARCHY
ROOT SpineBase
{
  OFFSET 0.000000 0.000000 0.000000
  CHANNELS 6 Xposition Yposition Zposition Zrotation Xrotation Yrotation
  JOINT SpineMid
  {
    OFFSET 0.000000 31.511074 0.000000
    CHANNELS 3 Zrotation Xrotation Yrotation
    JOINT SpineShoulder
    {
      OFFSET 0.249702 23.487143 -0.780155
      CHANNELS 3 Zrotation Xrotation Yrotation
      JOINT Neck
      {
        OFFSET 0.181172 7.796906 -0.545657
        CHANNELS 3 Zrotation Xrotation Yrotation
        JOINT Head
        {
          OFFSET 4.652820 12.976190 2.521547
          CHANNELS 3 Zrotation Xrotation Yrotation
          End Site
          {
            OFFSET 0 0 0
          }
        }
      }
      JOINT ShoulderLeft
      {
        OFFSET -8.805894 -2.339137 -12.148087
        CHANNELS 3 Zrotation Xrotation Yrotation
        JOINT ElbowLeft
        {
          OFFSET -4.892991 -24.819284 -8.524295
          CHANNELS 3 Zrotation Xrotation Yrotation
          JOINT WristLeft
          {
            OFFSET 4.226241 -21.924466 -5.063759
            CHANNELS 3 Zrotation Xrotation Yrotation
            JOINT HandLeft
            {
              OFFSET 1.503084 -8.743120 0.359961
              CHANNELS 3 Zrotation Xrotation Yrotation
              JOINT HandTipLeft
              {
                OFFSET 2.343095 -7.832641 -0.416965
                CHANNELS 3 Zrotation Xrotation Yrotation
                End Site
                {
                  OFFSET 0 0 0
                }
              }
              JOINT ThumbLeft
              {
                OFFSET 2.903430 1.908549 6.964340
                CHANNELS 3 Zrotation Xrotation Yrotation
                End Site
                {
                  OFFSET 0 0 0
                }
              }
            }
          }
        }
      }
      JOINT ShoulderRight
      {
        OFFSET 9.243681 -3.840982 14.974864
        CHANNELS 3 Zrotation Xrotation Yrotation
        JOINT ElbowRight
        {
          OFFSET -0.211390 -25.855199 8.834678
          CHANNELS 3 Zrotation Xrotation Yrotation
          JOINT WristRight
          {
            OFFSET 0.452144 -25.519104 3.357828
            CHANNELS 3 Zrotation Xrotation Yrotation
            JOINT HandRight
            {
              OFFSET 1.131753 -5.213421 -0.011611
              CHANNELS 3 Zrotation Xrotation Yrotation
              JOINT HandTipRight
              {
                OFFSET 0.381493 -4.420102 -1.887823
                CHANNELS 3 Zrotation Xrotation Yrotation
                End Site
                {
                  OFFSET 0 0 0
                }
              }
              JOINT ThumbRight
              {
                OFFSET -3.220193 0.909627 -1.889608
                CHANNELS 3 Zrotation Xrotation Yrotation
                End Site
                {
                  OFFSET 0 0 0
                }
              }
            }
          }
        }
      }
    }
  }
  JOINT HipLeft
  {
    OFFSET -3.345471 1.983857 -9.073231
    CHANNELS 3 Zrotation Xrotation Yrotation
    JOINT KneeLeft
    {
      OFFSET -9.896516 -32.689813 -3.833627
      CHANNELS 3 Zrotation Xrotation Yrotation
      JOINT AnkleLeft
      {
        OFFSET -8.710445 -38.480119 7.966820
        CHANNELS 3 Zrotation Xrotation Yrotation
        JOINT FootLeft
        {
          OFFSET 7.342117 -2.435311 -7.590211
          CHANNELS 3 Zrotation Xrotation Yrotation
          End Site
          {
            OFFSET 0 0 0
          }
        }
      }
    }
  }
  JOINT HipRight
  {
    OFFSET 5.255221 0.093169 2.612117
    CHANNELS 3 Zrotation Xrotation Yrotation
    JOINT KneeRight
    {
      OFFSET 0.070385 -38.214249 1.873769
      CHANNELS 3 Zrotation Xrotation Yrotation
      JOINT AnkleRight
      {
        OFFSET -1.726707 -35.932536 5.193940
        CHANNELS 3 Zrotation Xrotation Yrotation
        JOINT FootRight
        {
          OFFSET 7.077666 -2.422485 -7.669117
          CHANNELS 3 Zrotation Xrotation Yrotation
          End Site
          {
            OFFSET 0 0 0
          }
        }
      }
    }
  }
}
MOTION
Frames: 8
Frame Time: 0.033333
-88.299690 80.631384 297.747885 -0.000000 0.000000 -53.646053 -0.000000 0.000000 53.646053 -0.000000 0.000000 0.000000 -0.000000 0.000000 0.000000 0.000000 0.000000 0.000000 -0.000000 0.000000 0.000000 -0.000000 0.000000 0.000000 -0.000000 0.000000 0.000000 -0.000000 0.000000 0.000000 0.000000 0.000000 0.000000 0.000000 0.000000 0.000000 -0.000000 0.000000 0.000000 -0.000000 0.000000 0.000000 -0.000000 0.000000 0.000000 -0.000000 0.000000 0.000000 0.000000 0.000000 0.000000 0.000000 0.000000 0.000000 -0.000000 0.000000 53.646053 -0.000000 0.000000 0.000000 -0.000000 0.000000 0.000000 0.000000 0.000000 0.000000 -0.000000 0.000000 53.646053 -0.000000 0.000000 0.000000 -0.000000 0.000000 0.000000 0.000000 0.000000 0.000000
-88.235964 80.732939 297.644043 -0.113244 -0.010921 -54.245144 0.057308 0.098282 54.245084 -0.000000 0.000000 0.000000 -0.924202 1.436508 -0.322210 0.000000 0.000000 0.000000 -0.000000 0.000000 0.000000 -0.875779 -0.067223 0.189109 -0.268507 -1.790266 -0.574135 -0.461324 3.240611 0.919384 0.000000 0.000000 0.000000 0.000000 0.000000 0.000000 -0.000000 0.000000 0.000000 2.584555 -2.357655 0.350460 1.496310 -9.321759 -2.530879 -4.358732 1.797921 2.186901 0.000000 0.000000 0.000000 0.000000 0.000000 0.000000 0.057308 0.098282 54.245084 -0.000000 0.000000 0.000000 -0.000000 0.000000 0.000000 0.000000 0.000000 0.000000 0.057308 0.098282 54.245084 -0.000000 0.000000 0.000000 -0.000000 0.000000 0.000000 0.000000 0.000000 0.000000
-88.164584 80.800488 297.546866 -0.209085 -0.029158 -54.793366 0.096719 0.187649 54.793155 -0.000000 0.000000 0.000000 -1.676369 2.702834 -0.598112 0.000000 0.000000 0.000000 -0.000000 0.000000 0.000000 -1.672152 -0.190636 0.347815 -0.492210 -3.189136 -1.081609 -0.978253 5.709671 1.722548 0.000000 0.000000 0.000000 0.000000 0.000000 0.000000 -0.000000 0.000000 0.000000 4.806038 -4.694432 0.742081 1.130434 -14.715105 -4.055091 -6.408922 1.688659 3.869055 0.000000 0.000000 0.000000 0.000000 0.000000 0.000000 0.096719 0.187649 54.793155 -0.000000 0.000000 0.000000 -0.000000 0.000000 0.000000 0.000000 0.000000 0.000000 0.096719 0.187649 54.793155 -0.000000 0.000000 0.000000 -0.000000 0.000000 0.000000 0.000000 0.000000 0.000000
-88.085550 80.834033 297.456353 -0.287554 -0.054680 -55.292353 0.118780 0.267523 55.291938 -0.000000 0.000000 0.000000 -2.255899 3.791931 -0.835751 0.000000 0.000000 0.000000 -0.000000 0.000000 0.000000 -2.376172 -0.369926 0.472145 -0.681861 -4.212464 -1.506974 -1.516617 7.425255 2.370359 0.000000 0.000000 0.000000 0.000000 0.000000 0.000000 -0.001704 -0.888672 0.006653 6.443983 -5.984579 0.998997 -0.054763 -17.576781 -5.085813 -6.920274 1.056440 4.903041 0.000000 0.000000 0.000000 0.000000 0.000000 0.000000 0.118780 0.267523 55.291938 -0.000000 0.000000 0.000000 -0.003155 -0.290799 -0.873859 0.000000 0.000000 0.000000 0.118780 0.267523 55.291938 -0.000000 0.000000 0.000000 -0.000097 -0.296064 -0.871809 0.000000 0.000000 0.000000
-87.998861 80.833572 297.372504 -0.348691 -0.087456 -55.743477 0.123996 0.337430 55.742846 -0.000000 0.000000 0.000000 -2.663203 4.699360 -1.042045 0.000000 0.000000 0.000000 -0.000000 0.000000 0.000000 -2.976765 -0.603544 0.559132 -0.846661 -4.873172 -1.837467 -2.047856 8.404742 2.826180 0.000000 0.000000 0.000000 0.000000 0.000000 0.000000 0.020065 -1.301544 0.017657 7.306106 -7.447997 1.175563 -1.481299 -18.928085 -5.809231 -6.382383 0.587575 5.376890 0.000000 0.000000 0.000000 0.000000 0.000000 0.000000 -0.205921 -0.592226 55.929457 0.954909 0.247498 -0.189407 -0.001842 -0.386310 -1.171262 0.000000 0.000000 0.000000 0.123996 0.337430 55.742846 -0.000000 0.000000 0.000000 0.002302 -0.393682 -1.170104 0.000000 0.000000 0.000000
-87.904517 80.799107 297.295320 -0.392547 -0.127447 -56.147843 0.112831 0.396995 56.147016 -0.000000 0.000000 0.000000 -2.899511 5.422713 -1.222562 0.000000 0.000000 0.000000 -0.851797 -0.112956 0.313633 -2.617541 -0.761639 0.298804 -0.993769 -5.179895 -2.062684 -2.551089 8.661326 3.057491 0.000000 0.000000 0.000000 0.000000 0.000000 0.000000 0.053150 -1.773391 0.033308 7.298106 -8.435977 1.172305 -2.911832 -19.387513 -6.306885 -5.000694 0.579815 5.370411 0.000000 0.000000 0.000000 0.000000 0.000000 0.000000 -0.344519 -0.747609 56.364387 1.206310 0.253186 -0.221436 0.000660 -0.481136 -1.471775 0.000000 0.000000 0.000000 0.112831 0.396995 56.147016 -0.000000 0.000000 0.000000 0.005919 -0.490789 -1.472297 0.000000 0.000000 0.000000
-87.798514 80.726470 297.218290 -0.428201 -0.174318 -56.601469 0.090181 0.453442 56.600460 -0.000000 0.000000 0.000000 -2.962411 6.072960 -1.418778 0.000000 0.000000 0.000000 -0.998226 -0.254149 0.390370 -2.962335 -1.027800 0.246633 -1.378770 -5.161101 -2.235809 -2.318421 8.211394 2.956171 0.000000 0.000000 0.000000 0.000000 0.000000 0.000000 0.146844 -2.551484 0.073750 6.192831 -8.828319 0.905071 -6.651822 -18.494872 -6.666491 0.902933 0.264335 3.143591 0.000000 0.000000 0.000000 0.000000 0.000000 0.000000 -0.517898 -0.944234 56.852264 1.502731 0.255048 -0.257753 0.005795 -0.602618 -1.864977 0.000000 0.000000 0.000000 0.090181 0.453442 56.600460 -0.000000 0.000000 0.000000 0.011927 -0.616141 -1.868946 0.000000 0.000000 0.000000
-87.695136 80.631586 297.142522 -0.453570 -0.231921 -56.944218 0.053026 0.506656 56.943065 -0.000000 0.000000 0.000000 -2.826841 6.488712 -1.587781 0.000000 0.000000 0.000000 -1.033673 -0.386947 0.427557 -3.283080 -1.302017 0.202377 -1.082522 -4.553316 -2.180786 -2.949667 7.080279 2.689442 0.000000 0.000000 0.000000 0.000000 0.000000 0.000000 0.219948 -3.310706 0.107528 4.007493 -8.208940 0.434903 -8.456680 -17.052333 -6.511306 3.895877 1.879170 2.695213 0.000000 0.000000 0.000000 0.000000 0.000000 0.000000 -0.708929 -1.104900 57.217818 2.082197 -0.509741 -0.048273 -0.309246 0.030897 -2.443038 0.000000 0.000000 0.000000 0.053026 0.506656 56.943065 -0.000000 0.000000 0.000000 0.015698 -0.727762 -2.219357 0.000000 0.000000 0.000000
